<?xml version="1.0" encoding="UTF-8"?>
<!DOCTYPE svg PUBLIC "-//W3C//DTD SVG 1.1//EN" "http://www.w3.org/Graphics/SVG/1.1/DTD/svg11.dtd">
<!-- Creator: CorelDRAW -->
<svg xmlns="http://www.w3.org/2000/svg" xml:space="preserve" width="250px" height="200px" style="shape-rendering:geometricPrecision; text-rendering:geometricPrecision; image-rendering:optimizeQuality; fill-rule:evenodd; clip-rule:evenodd"
viewBox="0 0 98.5354 76.9655"
 xmlns:xlink="http://www.w3.org/1999/xlink">
 <defs>
  <style type="text/css">
<!--   <![CDATA[-->
    .fil1 {fill:#000}
    .fil0 {fill:#EC7A00}
<!--   ]]>-->
  </style>
 </defs>
 <g id="Vrstva_x0020_1">
  <metadata id="CorelCorpID_0Corel-Layer"/>
  <g id="_164999696">
   <path id="_90373984" class="fil0" d="M70.8089 76.4567c2.73426,0.319222 5.54848,0.509052 8.5488,0.509052 6.97242,0 12.1832,-8.94943 12.1832,-18.3722l0 -1.85261c0,-8.06716 -5.46956,-17.2542 -11.4806,-17.2914l-1.05424 0c-6.93566,0 -15.0053,-1.37305 -18.5575,11.7263 -2.3978,8.84268 -0.52276,23.6648 10.3603,25.2809zm8.79096 -25.3369c2.7542,3.3941 2.65534,11.4012 -0.292222,14.3831 4.90069,-1.69809 5.07702,-12.9008 0.292222,-14.3831zm-7.13691 -40.4887c9.01465,-1.96165 14.9883,-3.20614 25.5409,0.247153l0 1.78096c-1.86009,0 -3.3671,-0.12233 -5.22718,-0.12233 -3.1511,-3.44498 -6.58424,-3.32348 -10.8141,-2.92264 -2.50248,0.236976 -6.69037,1.13773 -9.19264,1.38406l-0.306968 -0.367199zm19.6177 3.90564l4.95822 -0.611652 0 9.39265 -4.95822 0.733982 0 -9.51498zm-6.63159 -4.05663c0.526498,0 0.953305,0.510714 0.953305,1.1394 0,0.629098 -0.426806,1.13898 -0.953305,1.13898 -0.526291,0 -0.953305,-0.509883 -0.953305,-1.13898 0,-0.628683 0.427014,-1.1394 0.953305,-1.1394zm-12.2492 1.1747l13.4551 -1.61667c1.80235,0.24383 3.55173,1.62955 4.22756,2.71951l-3.06137 0.346845 0 -0.00145384 -6.36575 0.725882 -6.29825 0.746444 -0.486622 -0.72609c0.0488075,0.0110077 0.0994843,0.0170307 0.150992,0.0170307 0.44986,0 0.814359,-0.435945 0.814359,-0.973243 0,-0.537298 -0.364499,-0.973243 -0.814359,-0.973243 -0.440514,0 -0.799405,0.417876 -0.814151,0.939597l-0.807505 -1.20461zm10.076 -0.972205c0.526291,0 0.953305,0.510091 0.953305,1.13919 0,0.628475 -0.427014,1.13857 -0.953305,1.13857 -0.526291,0 -0.953305,-0.510091 -0.953305,-1.13857 0,-0.629098 0.427014,-1.13919 0.953305,-1.13919zm7.71554 2.83374l0.109454 15.3067 6.34207 0.348714 -6.28516 0.287238 0.392537 8.81859 5.63177 0.134792 -0.0884766 3.42006 -4.48905 0.0610613 5.93084 17.7068 -5.55035 -0.00623075c0.406868,-4.28343 -0.293261,-8.2277 -1.5525,-11.5944 -0.614767,-1.64409 -1.42227,-3.15151 -2.41379,-4.49258 -1.5041,-2.03476 -3.13947,-3.54177 -5.52294,-4.86019l4.52602 -0.335837 -0.298868 -8.10496 -5.85607 0.302399 0.755375 -1.50743 5.12915 -0.361176 0.0664613 -14.803 3.17353 -0.320468zm-12.6738 23.0401c-2.94777,-3.60303 -5.89554,-7.20586 -8.84351,-10.8089 -2.45658,0 -4.91295,0 -7.36952,0 -4.65001,-4.72229 -7.83247,-9.93181 -10.2843,-10.6623 -1.79238,-0.533975 -5.01222,0.0614767 -7.16744,0.766175 1.5068,5.09405 5.16238,7.68978 8.80903,10.8795 -4.76881,-3.45225 -9.01319,-5.30528 -10.4841,-10.802 0.801274,-1.92738 1.55395,-3.66721 2.29292,-5.23902 0.198969,-0.423276 4.88283,-0.821836 7.36163,-0.980928 1.35726,-0.0872305 3.22504,1.3338 3.3212,1.1448 0.0647998,-0.127523 1.33089,-1.3934 1.05944,-2.59033 -0.142269,-0.627021 -1.11572,-1.23556 -2.02396,-1.65115 -1.84534,-0.844474 -8.1789,1.02413 -8.00028,0.705529 1.49226,-2.66448 3.04767,-4.71065 4.96196,-6.29929 2.47319,-0.687875 5.36924,-1.56745 6.89474,-0.570321 15.142,9.89713 18.0551,18.4482 22.5838,26.1183l0.143307 1.50369 -3.25494 8.48628zm-36.5695 28.9728l-1.94524 -6.92091 10.136 0.705736 7.71138 -0.307176 0.533352 5.35782 -9.73555 2.39655 -6.69993 -1.23203zm-0.0388383 -14.6094l-0.0438229 -6.4428 4.93475 -0.260653 -0.170723 -4.13327 7.07689 -0.174461 0.292638 10.078 0.940635 -10.1086 0.986743 -1.65094 3.67116 -2.18969c1.1367,0.155353 1.76247,0.605421 1.78553,1.66236l0.147046 6.67833c-1.0395,1.68563 -1.89186,3.71602 -2.59864,6.13542l-9.16834 0.917789 -7.85386 -0.511545zm18.2125 -16.4832l-5.60061 3.30437 -7.97515 0.319014 -0.456922 -1.40233 2.38887 -1.60546c2.26135,-0.1107 4.5229,-0.221607 6.78446,-0.332514l3.62339 -1.96331c0.639898,-0.467514 1.4499,-0.680813 2.35398,-0.593583l11.2558 0.258576c0.971374,1.35602 1.94296,3.56835 2.91454,4.92437 -6.15203,0.295545 -10.3187,2.04805 -13.1959,6.01039l-0.058569 -7.16017 2.90291 -0.220984 0.00332307 -1.76226 -3.60283 -0.0859843c-0.562637,-0.0407076 -1.0289,0.0699921 -1.33733,0.309876zm-25.1581 34.4249c1.99758,0.233238 4.05476,0.371976 6.24757,0.371976 1.51781,0 2.92077,-0.580498 4.14324,-1.57742l-4.57815 -0.841774 -0.748521 -2.66365c-2.28108,-0.974697 -3.35941,-4.86497 -3.35941,-8.56873 0,-3.85164 1.33753,-7.61439 3.73762,-8.7081l-0.0257538 -3.79598 4.33037 -0.228669c-0.942089,-0.648206 -1.95313,-1.02496 -2.98598,-1.03119l-0.770951 0c-3.5239,0 -7.05944,0.832636 -9.16252,2.55918 -1.40233,1.15123 -3.60781,3.09315 -4.3987,6.00997 -1.75292,6.46212 -0.381945,17.2939 7.57119,18.4744zm2.43768 -16.7696l12.1329 0.791928 9.21528 -0.611444 -0.611652 5.04878 -8.43602 0.611652 -11.8114 -1.15892 -0.489114 -4.68199zm35.941 6.19295c0,-6.26086 2.58202,-12.351 7.11635,-12.351 4.51314,0 7.30182,5.51671 7.30182,11.4249l0 2.47008c0,4.50483 -3.19201,10.4984 -6.56596,10.4984l-1.69165 0c-4.19496,0 -6.16055,-6.19087 -6.16055,-12.0424z"/>
   <path id="_90373360" class="fil1" d="M35.5992 31.7133l0.0506768 1.5365c0.750182,-0.396899 1.89062,-1.08457 3.02212,-1.08457 3.21881,0 3.33823,2.47444 6.38776,2.47444 1.80629,0 3.34529,-1.39527 5.22905,-1.11925 0.927966,0.147253 2.04161,0.895774 2.2115,1.42954l1.17304 -0.748521c-0.347468,-0.976566 -1.61148,-1.97992 -2.93261,-2.12697 -2.89356,-0.36803 -3.77978,1.02309 -5.69761,1.02309 -1.8497,0 -2.81775,-2.60902 -6.38465,-2.46177 -0.843643,0 -2.53052,0.723598 -3.0593,1.0775zm-35.5992 2.26031l3.89339 0.456922 26.8188 0 3.86701 -0.456922 0 -2.58929 -34.5792 0 0 2.58929zm4.22133 -21.2797l0.898059 0 0 13.9222 24.2505 0 0 0.808336 -25.1486 0 0 -14.7305zm18.8628 7.9953l-3.51726 -1.63329 -5.20579 4.43339 -4.26121 -2.31659 -4.19309 4.65603 -0.66669 -0.711759 4.84233 -5.27848 4.14199 2.32552 5.17443 -4.43733 3.43917 1.63723 5.55139 -5.8702 0.802105 0.728375 -6.10738 6.4671zm-22.186 -9.97128l0 18.6825c0,0.381322 0.334799,0.718613 0.628683,0.718613l31.4358 0c0.434283,0 0.718405,-0.284122 0.718405,-0.718613l0 -18.6825c0,-0.216415 -0.322545,-0.53896 -0.538752,-0.53896l-31.7052 0c-0.216207,0 -0.53896,0.322545 -0.53896,0.53896z"/>
  </g>
 </g>
</svg>
