<?xml version="1.0" encoding="UTF-8"?>
<!DOCTYPE svg PUBLIC "-//W3C//DTD SVG 1.1//EN" "http://www.w3.org/Graphics/SVG/1.1/DTD/svg11.dtd">
<!-- Creator: CorelDRAW -->
<svg xmlns="http://www.w3.org/2000/svg" xml:space="preserve" width="250px" height="200px" style="shape-rendering:geometricPrecision; text-rendering:geometricPrecision; image-rendering:optimizeQuality; fill-rule:evenodd; clip-rule:evenodd"
viewBox="0 0 41.1249 32.2314"
 xmlns:xlink="http://www.w3.org/1999/xlink">
 <defs>
  <style type="text/css">
<!--   <![CDATA[-->
    .fil0 {fill:#000}
    .fil1 {fill:#EC7A00}
<!--   ]]>-->
  </style>
 </defs>
 <g id="Vrstva_x0020_1">
  <metadata id="CorelCorpID_0Corel-Layer"/>
  <g id="_90375400">
   <path id="_90374920" class="fil0" d="M28.3368 11.0666l0.378299 0 0 5.86467 10.2154 0 0 0.340573 -10.5937 0 0 -6.20525zm-2.17604 8.12079l-0.00662153 0.65588c-0.352161,-0.0474834 -0.777507,-0.1976 -1.22202,-0.0339789l-0.106554 0.0392064c-1.39296,0.567622 -0.198559,2.90189 -2.04509,3.53477l-0.142014 0.0522753c-0.724099,0.266604 -1.41709,0.15944 -1.99491,0.100456l0.300757 -0.636713c0.594108,0.0381609 1.10074,0.127813 1.59945,-0.0579384 1.35123,-0.830741 0.331077,-2.65105 1.81108,-3.50497l0.46159 -0.169895c0.331512,-0.122063 1.08541,-0.0417331 1.34435,0.0209101zm0.397815 0.843287l1.64005 0.192373 11.2973 0 1.62898 -0.192373 0 -1.09081 -14.5663 0 0 1.09081zm9.72407 -5.59607l-1.48165 -0.687942 -2.19286 1.86753 -1.79504 -0.975892 -1.76629 1.96137 -0.280892 -0.299886 2.03978 -2.22353 1.74486 0.979638 2.1797 -1.86919 1.44881 0.689598 2.33845 -2.47279 0.337872 0.306856 -2.57273 2.72424zm-9.34577 -4.2004l0 7.87004c0,0.160572 0.141056,0.302674 0.264861,0.302674l13.2421 0c0.183051,0 0.302674,-0.11971 0.302674,-0.302674l0 -7.87004c0,-0.0910461 -0.135829,-0.226962 -0.226962,-0.226962l-13.3556 0c-0.0911332,0 -0.227049,0.135916 -0.227049,0.226962z"/>
   <path id="_90374872" class="fil1" d="M25.6838 24.7583l5.02618 -0.536083 0.0639501 4.19683 -4.67132 1.27186 -0.418812 -4.93261zm-12.3296 -6.88648l2.18998 4.14543 1.51772 -0.927973 -0.14942 0.94078 -0.893994 1.21401 -3.22512 -5.45205 3.94138 -7.0427 1.48122 3.075 -1.099 6.91854 -2.08883 -4.18246 -1.4076 0.54253 -0.266342 0.768882zm-12.5715 -0.0748407c0.0115877,1.30531 0.441464,1.82205 1.78276,1.88792 2.40545,0.118316 6.26318,-0.00575028 7.75347,-0.279411 1.22951,-0.225829 1.33058,-0.695087 1.54761,-1.90657 -0.179653,-0.290389 -0.374814,-0.549849 -0.724622,-0.809308 -0.438589,0.678794 -1.4604,1.19475 -2.29663,1.32753 -2.52638,0.327592 -6.88622,0.441987 -8.06259,-0.220166zm18.0127 8.31795l2.39569 -4.42057c-0.241773,-1.3169 -0.687071,-2.34272 -0.0802425,-4.09463l0.957421 -2.76405c-0.10699,-0.195509 -0.183573,-0.33613 -0.476925,-0.871603 -1.8908,-3.45191 -4.56128,-8.32719 -5.40622,-9.66073 -0.870296,-1.00691 -1.67621,-1.29407 -2.43376,-1.19641 -0.78317,0.100978 -1.54682,0.607351 -2.28094,1.16487l-0.0509684 0.0388579 -0.0616848 0.0100194 -8.56356 1.40368 -0.0781515 0.0128074 -0.0703973 -0.0327592c-0.709114,-0.330292 -1.18839,-0.31522 -1.86222,-0.294135l-0.00095838 0 -0.0235239 0.000784129c-0.016641,0.219469 -0.0217814,0.435976 -0.0126332,0.644118 -0.569974,4.81612 -1.52748,7.01386 0.405743,11.4417 1.26349,0.280979 7.43389,0.684632 9.03525,-0.466992 0.15578,-0.112043 0.813751,-0.737865 0.892687,-0.94958 0.311996,0.211279 1.25922,1.1017 1.19275,1.44567l-0.162053 0.838321c1.29163,1.83634 2.60679,4.02615 1.76255,5.63937l2.29471 3.63601 2.62744 -1.52478zm3.49782 -11.9288l0.87683 -2.53134c-0.76165,-1.33476 -3.66746,-8.56173 -6.7212,-10.8848 -0.934681,-0.711118 -1.88365,-1.04141 -2.78888,-0.502714 -0.92806,0.552201 -0.774022,1.25565 -7.74467,2.49475 -2.98431,0.530507 -2.78976,-0.494088 -3.99636,-0.446169 -0.362616,0.0143757 -0.904362,1.27255 -1.10161,2.58458 0.698746,-0.0217814 1.21401,-0.0297098 1.972,0.308772l8.42546 -1.38102c0.776287,-0.585831 1.59152,-1.11207 2.47279,-1.22577 0.923617,-0.119013 1.88731,0.210582 2.89431,1.38129l0.00967092 0.0113263 0.0112392 0.0175122c0.843984,1.32657 3.53355,6.23644 5.43523,9.70812l0.25519 0.465424zm-9.06026 10.2794l-1.14126 2.56445 -3.91176 2.40998 -6.43456 -0.781602 0.569016 -2.76048 1.58438 -2.14877 9.33418 0.716432zm-10.3994 2.23076l-0.0505327 0.783345 6.20246 0.672695 0.982426 -0.682366 -7.13435 -0.773674zm0.562307 -1.2201l-0.473701 0.67104 7.73796 0.772628 0.497225 -0.743615 -7.76148 -0.700053zm16.2634 1.61835l-2.26552 0.331338 -0.216071 -0.00792841 -1.15485 0.692996 -0.457234 -0.752241 -3.04007 -0.111782 -0.838669 0.50132 1.26916 0.710421 -1.97975 -0.271221 -0.916124 0.556122 2.98831 0.388666 -0.791709 0.452704 -2.99241 -0.293787 -0.956724 0.511252 -2.67536 -0.352597 0.221299 0.479451 11.144 1.24171c1.43016,0.0273574 2.39482,-0.327417 3.21083,-0.683935 -0.525366,-1.12374 -0.538958,-2.20506 -0.549152,-3.39249zm-4.53915 1.02329c0.675222,0.105248 1.37606,0.0153341 2.08735,-0.0114134l0.00453052 1.15633c-0.360176,0.980684 -1.69058,0.942958 -2.26186,0.942523 0.0579384,-0.710595 0.11213,-1.37684 0.169982,-2.08744zm6.52134 0.0898263c0,-1.34853 0.556122,-2.66029 1.53271,-2.66029 0.972058,0 1.57279,1.1883 1.57279,2.46086l0 0.531988c0,0.970316 -0.687507,2.26125 -1.41422,2.26125l-0.364358 0c-0.903578,0 -1.32692,-1.33345 -1.32692,-2.59381zm-1.33598 -0.0331948c0,0.570671 0.0994972,1.08157 0.205006,1.52548 0.0933113,0.3925 0.392413,1.0124 0.425782,1.20129l-1.08445 0.356604c0.0870383,0.427524 0.811399,0.755639 1.28702,0.811225 0.588881,0.068742 1.1951,0.162315 1.84131,0.162315 1.50178,0 2.62413,-1.92756 2.62413,-3.95715l0 -0.399034c0,-1.73763 -1.18203,-3.72444 -2.47279,-3.72444l-0.227049 0c-1.49385,0 -2.59895,1.89411 -2.59895,3.92395l0 0.0997586z"/>
  </g>
 </g>
</svg>
