<?xml version="1.0" standalone="no"?>
<!DOCTYPE svg PUBLIC "-//W3C//DTD SVG 20010904//EN"
 "http://www.w3.org/TR/2001/REC-SVG-20010904/DTD/svg10.dtd">
<svg version="1.0" xmlns="http://www.w3.org/2000/svg"
 width="85.000000pt" height="85.000000pt" viewBox="0 0 85.000000 85.000000"
 preserveAspectRatio="xMidYMid meet">
<metadata>
Created by potrace 1.14, written by Peter Selinger 2001-2017
</metadata>
<g transform="translate(0.000000,85.000000) scale(0.100000,-0.100000)"
fill="#000000" stroke="none">
<path d="M214 779 c-16 -17 -17 -49 -16 -361 1 -232 5 -345 12 -352 7 -7 83
-12 210 -14 185 -3 200 -2 218 16 18 18 19 37 18 359 -1 260 -4 344 -14 355
-10 13 -45 16 -211 16 -184 0 -201 -1 -217 -19z"/>
<path d="M98 673 c-22 -5 -24 -33 -3 -33 8 0 15 -4 15 -10 0 -5 10 -8 23 -6
12 3 24 5 27 5 3 1 5 12 5 26 0 20 -5 25 -25 24 -14 -1 -33 -3 -42 -6z"/>
<path d="M690 651 c0 -25 4 -29 23 -27 75 9 77 56 1 56 -20 0 -24 -5 -24 -29z"/>
<path d="M110 561 c0 -6 -7 -11 -15 -11 -8 0 -15 -7 -15 -16 0 -8 4 -13 9 -9
5 3 12 1 16 -5 3 -5 19 -10 34 -10 24 0 28 4 26 28 -1 22 -6 28 -28 30 -15 2
-27 -1 -27 -7z"/>
<path d="M690 540 c0 -26 4 -30 26 -30 14 0 32 7 41 16 14 14 14 16 -3 29 -11
8 -29 15 -41 15 -19 0 -23 -5 -23 -30z"/>
<path d="M113 447 c-54 -16 -40 -37 35 -53 6 -1 12 1 13 4 0 4 2 17 5 29 5 26
-11 32 -53 20z"/>
<path d="M713 452 c-17 -3 -23 -10 -23 -31 0 -21 4 -26 23 -25 32 2 57 14 57
28 0 17 -32 32 -57 28z"/>
<path d="M110 329 c0 -5 -7 -9 -15 -9 -8 0 -15 -4 -15 -10 0 -14 38 -32 63
-28 20 3 23 11 18 47 0 5 -12 9 -26 9 -14 0 -25 -4 -25 -9z"/>
<path d="M690 311 c0 -26 4 -31 24 -31 31 0 56 10 56 22 0 16 -24 33 -52 36
-25 3 -28 0 -28 -27z"/>
<path d="M110 210 c0 -5 -7 -7 -15 -4 -9 4 -15 0 -15 -10 0 -9 7 -16 15 -16 8
0 15 -5 15 -10 0 -6 12 -9 28 -7 21 3 27 9 28 30 1 23 -3 27 -27 27 -16 0 -29
-4 -29 -10z"/>
<path d="M690 191 c0 -24 4 -28 28 -27 15 0 33 7 40 14 20 18 -2 42 -39 42
-25 0 -29 -4 -29 -29z"/>
</g>
</svg>
