<?xml version="1.0" encoding="UTF-8"?>
<!DOCTYPE svg PUBLIC "-//W3C//DTD SVG 1.1//EN" "http://www.w3.org/Graphics/SVG/1.1/DTD/svg11.dtd">
<!-- Creator: CorelDRAW -->
<svg xmlns="http://www.w3.org/2000/svg" xml:space="preserve" width="250px" height="200px" style="shape-rendering:geometricPrecision; text-rendering:geometricPrecision; image-rendering:optimizeQuality; fill-rule:evenodd; clip-rule:evenodd"
viewBox="0 0 299.396 222.127"
 xmlns:xlink="http://www.w3.org/1999/xlink">
 <defs>
  <style type="text/css">
   <![CDATA[
    .fil1 {fill:#000}
    .fil0 {fill:#EC7A00}
   ]]>
  </style>
 </defs>
 <g id="Vrstva_x0020_1">
  <metadata id="CorelCorpID_0Corel-Layer"/>
  <g id="_165000896">
   <path id="_90375040" class="fil0" d="M119.166 18.2894c-3.93866,0 -15.2365,-6.11794 -17.9939,-7.96475 0.626663,2.69044 6.52764,9.6852 8.68011,11.3789 4.81995,3.7938 6.53593,4.8844 13.2461,6.81289 5.56339,1.59857 10.9424,1.75172 16.4611,3.59725 5.02479,1.68025 9.67116,3.66809 13.7687,6.28961 7.25959,4.64445 16.0686,12.2257 21.3346,18.7833 5.45363,6.79183 13.9308,14.9844 18.5421,21.8707l2.57493 -0.0459468 3.91441 -7.03369c17.6238,0 38.7836,-0.379061 54.4125,1.92721 8.96473,1.32352 15.8906,2.17609 23.6473,4.67126 3.80912,1.22461 6.624,2.5526 9.61309,4.54554 3.27945,2.1863 5.35535,6.44085 6.71908,7.44019 0,-15.1382 4.46641,-8.27617 -4.42429,-19.7641 -2.46071,-3.17926 -10.1919,-10.6137 -13.479,-13.3648 -4.76826,-3.98907 -9.07258,-8.55823 -13.994,-12.5543 -4.74911,-3.85634 -10.0266,-8.15938 -14.6315,-12.2116 -8.11344,-7.13898 -21.2574,-17.4508 -31.9777,-21.4144 -6.88181,-2.5443 -34.8315,-11.2525 -42.4331,-11.2525 -4.49194,0 -18.0571,11.7962 -21.5286,14.4592 -0.394377,0.302483 -29.9056,3.83018 -32.4518,3.83018zm88.1974 168.144c0,-11.9628 8.34636,-23.5994 19.7635,-23.5994 11.3635,0 20.3532,10.5403 20.3532,21.8292l0 4.71976c0,8.608 -9.49758,20.0596 -17.9933,20.0596l-3.24499 0c-10.5627,0 -18.8784,-11.8294 -18.8784,-23.0091zm-10.9143 -0.295463c0,5.06244 1.16335,9.59522 2.39689,13.5326 1.09124,3.48175 4.58702,8.98132 4.97757,10.6571l-12.6775 1.80979c2.59663,9.68265 29.0409,9.9896 36.5705,9.9896 17.5568,0 30.6778,-17.0999 30.6778,-35.104l0 -3.53982c0,-15.4139 -13.8191,-33.0389 -28.9076,-33.0389l-2.6547 0c-17.4642,0 -30.383,16.8025 -30.383,34.8092l0 0.884476zm-77.8734 -21.5337c9.58118,-0.21378 23.5528,-2.94123 30.8482,-5.72931 6.60677,-2.52516 19.0711,-9.61054 26.9669,-9.61054 2.41348,0 5.8997,-0.10019 5.8997,2.35988 0,4.74273 -3.2903,9.76944 -5.55701,12.4375 -2.80339,3.30051 -7.67758,4.00567 -12.4694,5.229 -7.62015,1.94572 -22.1412,4.45812 -31.2342,4.45812l-8.5544 0 -7.97624 -0.788753 -0.268023 -0.180596 2.34456 -8.17534zm144.512 28.614l0 0.58965 0.58965 0c5.67443,-1.32225 35.7179,-8.92708 35.7179,-12.6845l0 -69.3222c0,-8.99791 -5.18369,-20.9447 -13.8638,-20.9447l0.35864 2.05293c-8.9526,5.96479 -37.7817,12.9181 -50.6978,16.6334 -17.3972,5.00437 -34.7217,10.0049 -51.722,15.2377 -17.6487,5.43257 -33.2776,11.0304 -49.5147,17.7406 -3.64001,1.50412 -7.86456,3.6432 -11.2359,5.57743 -5.01011,2.87487 -5.53914,3.32476 -9.2219,7.59271 -2.5526,2.95846 -5.23091,6.19261 -7.60866,9.20531 -2.10526,2.66747 -4.55575,7.37701 -9.1415,7.37701l-6.78481 0c-9.31635,0 -26.5477,-3.94696 -26.5477,-11.7994l0 -1.17994c0,-5.02352 1.18887,-9.44079 1.17164,-14.463 -0.0185063,-5.28643 2.37264,-8.6029 3.25329,-12.3807 -6.23983,4.17797 -20.3538,30.1513 -20.3538,41.2985 1.88446,0.502862 8.97877,4.53469 12.1785,5.81546 4.0848,1.6343 8.7752,3.40134 13.1867,4.51172 7.22386,1.81745 21.4986,5.60232 29.7952,5.60232l9.73434 0c13.098,0 24.1004,-2.02421 35.4735,-3.46388 8.39231,-1.06252 9.3004,0.850654 13.4216,5.30494 0.676439,0.730682 9.09619,11.4331 5.97053,11.4331l-0.58965 0c-4.39877,0 -11.7183,-2.3803 -14.7489,-3.83464 0.114867,-1.38287 0.58965,-1.45881 0.58965,-2.95017l0 -0.294825c0,-2.97633 -3.34646,-5.8997 -6.78417,-5.8997l-0.590289 0c-2.42561,0 -4.71912,2.67832 -4.71912,5.30941l0 0.885114c-7.31766,0 -16.9818,-0.753655 -25.3645,-1.17292 -7.64057,-0.382252 -17.5772,-1.55453 -24.8362,-2.59663 -8.54164,-1.22589 -14.9933,-2.88635 -22.5969,-4.8359 -3.52003,-0.902982 -7.08155,-2.16269 -10.3463,-3.51748 -2.22204,-0.922127 -7.62015,-5.1588 -9.18361,-5.57615 1.753,7.52506 6.73057,16.7023 11.8638,20.879 5.06563,4.12245 17.8267,5.3611 25.7755,6.96732 9.09683,1.83787 18.5797,3.41219 27.9739,4.76889 8.63608,1.24694 20.2313,3.07844 29.3689,3.07844l2.06441 0c8.83391,0 18.9205,-1.58006 27.0448,-2.74851l13.0904 -1.95338 11.2168 -2.08292c-0.507329,-2.17992 -2.47538,-6.04838 -3.30881,-9.08023 -0.738339,-2.68789 -1.70577,-7.23151 -1.70577,-10.6839l0 -5.31005c0,-17.7055 17.648,-37.1422 35.3714,-37.1422 20.8643,0 36.8455,20.2325 36.8455,41.2723l0 1.47476 -0.58965 5.31005z"/>
   <g>
    <path id="_90374536" class="fil1" d="M12.9761 44.7381l2.76064 0 0 42.795 74.5436 0 0 2.48496 -77.3042 0 0 -45.2799zm57.9823 24.5764l-10.8115 -5.02033 -16.0022 13.6277 -13.0987 -7.12111 -12.8894 14.3124 -2.0491 -2.18822 14.8848 -16.225 12.7324 7.14792 15.9059 -13.6398 10.5716 5.03245 17.0648 -18.0443 2.46517 2.23927 -18.7737 19.879zm-68.1978 -30.651l0 57.429c0,1.17164 1.02934,2.20864 1.93296,2.20864l96.6299 0c1.33565,0 2.20927,-0.872989 2.20927,-2.20864l0 -57.429c0,-0.664952 -0.992323,-1.65664 -1.65664,-1.65664l-97.4589 0c-0.664952,0 -1.65664,0.991685 -1.65664,1.65664z"/>
    <polygon id="_90374488" class="fil1" points="0,111.554 106.293,111.554 106.293,100.786 0,100.786 "/>
    <path id="_90374152" class="fil1" d="M110.711 101.063l1.10464 4.69359c2.2916,-1.21312 4.82569,-3.31327 8.28255,-3.31327l0.828319 0c11.5818,0 9.19765,19.0507 22.9147,19.0507l1.10464 0c9.0094,0 15.0603,-6.35023 20.154,-6.35023l2.48496 0c1.82575,0 4.02034,2.1027 4.5398,3.73318l3.19075 -2.90486c-0.220162,-2.64641 -3.43644,-5.24559 -6.35023,-5.24559l-2.76064 0c-9.10768,0 -14.9225,6.35023 -21.8107,6.35023l-2.20864 0c-6.94371,0 -7.75544,-19.327 -19.3264,-19.327l-3.58895 0c-2.57749,0 -6.94371,2.23161 -8.55887,3.31327z"/>
   </g>
  </g>
 </g>
</svg>
